<svg width="131" height="32" viewBox="0 0 131 32" fill="none" xmlns="http://www.w3.org/2000/svg">
<path fill-rule="evenodd" clip-rule="evenodd" d="M118.039 1.25803C117.233 0.452502 116.14 0 115 0C113.86 0 112.767 0.452502 111.961 1.25803C108.706 4.52601 103.522 9.69634 100.267 12.9643C99.866 13.3612 99.5472 13.8337 99.3296 14.3546C99.112 14.8756 99 15.4345 99 15.999C99 16.5635 99.112 17.1224 99.3296 17.6433C99.5472 18.1642 99.866 18.6368 100.267 19.0336C103.522 22.3031 108.706 27.4735 111.961 30.7414C112.768 31.5462 113.861 31.9982 115 31.9982C116.139 31.9982 117.232 31.5462 118.039 30.7414C121.319 27.4735 126.478 22.3031 129.761 19.0336C130.555 18.2232 131 17.1337 131 15.999C131 14.8642 130.555 13.7747 129.761 12.9643C126.478 9.69485 121.322 4.52452 118.039 1.25803Z" fill="#EBB36B"/>
<path d="M116.113 12L119.277 20.6493H117.344L116.704 18.722H113.536L112.875 20.6493H111L114.201 12H116.113ZM116.219 17.2929L115.149 14.1203H115.128L114.024 17.2929H116.219Z" fill="#F1F7F9"/>
<path fill-rule="evenodd" clip-rule="evenodd" d="M84.1431 0.717872C83.526 0.252017 82.7738 0 82.0006 0C81.2274 0 80.4752 0.252017 79.858 0.717872L67.3934 10.1834C66.82 10.6141 66.3933 11.211 66.1713 11.8928C65.9494 12.5747 65.9429 13.3084 66.1529 13.9941C67.3546 17.8629 69.7596 25.5781 71.0001 29.5349C71.2231 30.2494 71.6688 30.8739 72.2722 31.317C72.8755 31.7601 73.6047 31.9987 74.3533 31.9978H89.6479C90.3965 31.9987 91.1257 31.7601 91.729 31.317C92.3323 30.8739 92.7781 30.2494 93.0011 29.5349C94.2416 25.5781 96.6451 17.8629 97.8468 13.9941C98.0558 13.3101 98.0508 12.5787 97.8326 11.8977C97.6144 11.2166 97.1933 10.6185 96.6257 10.1834C93.4857 7.81887 87.3801 3.17631 84.1431 0.717872Z" fill="#EBB36B"/>
<path d="M79 13.4855V12H84.2819V13.4971H82.3511V20.0915H80.9332V13.4855H79Z" fill="#F1F7F9"/>
<path d="M49 0C52.1645 0 55.2579 0.938382 57.8891 2.69648C60.5203 4.45459 62.5711 6.95345 63.7821 9.87706C64.9931 12.8007 65.3099 16.0177 64.6926 19.1214C64.0752 22.2251 62.5513 25.0761 60.3137 27.3137C58.0761 29.5513 55.2251 31.0752 52.1214 31.6926C49.0177 32.3099 45.8007 31.9931 42.8771 30.7821C39.9534 29.5711 37.4546 27.5203 35.6965 24.8891C33.9384 22.2579 33 19.1645 33 16C33 11.7565 34.6857 7.68687 37.6863 4.68629C40.6869 1.68571 44.7565 0 49 0Z" fill="#EBB36B"/>
<path d="M51.9882 19.637C51.3759 20.1829 50.5295 20.4548 49.4489 20.4528C48.3527 20.4528 47.5043 20.1849 46.9008 19.643C46.2974 19.1011 46 18.2674 46 17.142V12H47.7813V17.142C47.7805 17.3625 47.7991 17.5828 47.8367 17.8C47.8718 18.0078 47.9536 18.2045 48.0757 18.3746C48.2085 18.55 48.3818 18.6892 48.5801 18.7795C48.8568 18.8971 49.1554 18.951 49.4547 18.9373C50.0903 18.9373 50.5276 18.7914 50.7695 18.5026C51.0422 18.1061 51.171 17.625 51.134 17.142V12H52.9123V17.142C52.9084 18.2615 52.6004 19.0931 51.9882 19.637Z" fill="#F1F7F9"/>
<path fill-rule="evenodd" clip-rule="evenodd" d="M32 3.90608C31.9996 2.86998 31.5878 1.87646 30.8551 1.14398C30.1224 0.411488 29.1288 2.09145e-07 28.0928 2.84556e-07H3.90721C3.39418 -0.000195547 2.88613 0.100689 2.41209 0.2969C1.93806 0.493111 1.50732 0.780807 1.14448 1.14354C0.781642 1.50627 0.493819 1.93694 0.297445 2.41094C0.101072 2.88494 -3.73689e-08 3.393 0 3.90608V28.0954C0.000395268 29.1311 0.412059 30.1242 1.14448 30.8565C1.8769 31.5887 2.87011 32 3.90571 32H28.0928C29.1285 32 30.1219 31.5887 30.8546 30.8565C31.5872 30.1244 31.9992 29.1312 32 28.0954V3.90608Z" fill="#EBB36B"/>
<path d="M13.6458 12L15.6573 17.5653H15.679L17.5821 12H20.2434V20.0915H18.4733V14.3572H18.4486L16.3412 20.0915H14.9022L12.7948 14.4155H12.7701V20.0915H11V12H13.6458Z" fill="#F1F7F9"/>
</svg>
